<?xml version="1.0" encoding="UTF-8" standalone="no"?>
<svg
   xmlns:dc="http://purl.org/dc/elements/1.1/"
   xmlns:cc="http://creativecommons.org/ns#"
   xmlns:rdf="http://www.w3.org/1999/02/22-rdf-syntax-ns#"
   xmlns:svg="http://www.w3.org/2000/svg"
   xmlns="http://www.w3.org/2000/svg"
   xmlns:sodipodi="http://sodipodi.sourceforge.net/DTD/sodipodi-0.dtd"
   xmlns:inkscape="http://www.inkscape.org/namespaces/inkscape"
   width="24"
   height="24"
   viewBox="0 0 1000 874.19366"
   version="1.1"
   id="svg16982"
   sodipodi:docname="A.svg"
   inkscape:version="0.92.4 (5da689c313, 2019-01-14)">
  <metadata
     id="metadata16988">
    <rdf:RDF>
      <cc:Work
         rdf:about="">
        <dc:format>image/svg+xml</dc:format>
        <dc:type
           rdf:resource="http://purl.org/dc/dcmitype/StillImage" />
        <dc:title></dc:title>
      </cc:Work>
    </rdf:RDF>
  </metadata>
  <defs
     id="defs16986" />
  <sodipodi:namedview
     pagecolor="#ffffff"
     bordercolor="#666666"
     borderopacity="1"
     objecttolerance="10"
     gridtolerance="10"
     guidetolerance="10"
     inkscape:pageopacity="0"
     inkscape:pageshadow="2"
     inkscape:window-width="1920"
     inkscape:window-height="1017"
     id="namedview16984"
     showgrid="false"
     fit-margin-top="0"
     fit-margin-left="0"
     fit-margin-right="0"
     fit-margin-bottom="0"
     inkscape:zoom="0.73141358"
     inkscape:cx="646.03482"
     inkscape:cy="324.56417"
     inkscape:window-x="1912"
     inkscape:window-y="-8"
     inkscape:window-maximized="1"
     inkscape:current-layer="svg16982" />
  <path
     d="m 952.71676,702.75484 c 0,6.64564 -0.10633,13.37986 -0.23061,20.14957 0.14155,-5.66208 0.23925,-11.93556 0.23925,-18.86477 0,-0.41668 -0.007,-0.86839 -0.007,-1.2848"
     style="fill:#003661;fill-opacity:1;fill-rule:nonzero;stroke:none;stroke-width:8.86084938"
     id="path19094"
     inkscape:connector-curvature="0" />
  <path
     d="m 949.47721,764.23403 0.42532,-0.21266 v -0.0266 z"
     style="fill:#003661;fill-opacity:1;fill-rule:nonzero;stroke:none;stroke-width:8.86084938"
     id="path19096"
     inkscape:connector-curvature="0" />
  <path
     d="m 952.72387,702.27635 h -0.007 c 0,0.1595 0,0.32763 0,0.47849 0,-0.1595 0.007,-0.31899 0.007,-0.47849"
     style="fill:#003661;fill-opacity:1;fill-rule:nonzero;stroke:none;stroke-width:8.86084938"
     id="path19098"
     inkscape:connector-curvature="0" />
  <path
     d="m 850.58926,809.19309 c 58.71201,-22.05461 92.45411,-41.2827 93.03892,-41.61936 l 5.84816,-3.34057 -7.18612,3.68614 c -30.80034,15.78113 -61.40569,29.45346 -91.70096,41.27379"
     style="fill:#003661;fill-opacity:1;fill-rule:nonzero;stroke:none;stroke-width:8.86084938"
     id="path19100"
     inkscape:connector-curvature="0" />
  <path
     d="m 501.60117,602.98963 c 2.56078,1.64812 4.75827,3.18105 6.65449,4.62536 h 27.80535 c -1.6747,-1.59495 -3.43801,-3.1456 -5.23676,-4.62536 z"
     style="fill:#003661;fill-opacity:1;fill-rule:nonzero;stroke:none;stroke-width:8.86084938"
     id="path19102"
     inkscape:connector-curvature="0" />
  <path
     d="M 1000,607.61499 994.77214,589.7338 973.59469,517.25205 994.77214,444.726 1000,426.85367 H 981.36563 908.36112 C 889.77108,371.06576 863.62269,313.11581 826.87676,257.30131 793.44476,206.51976 751.24941,157.56361 698.15516,113.8619 645.06983,70.14244 581.11222,31.71298 504.35069,1.86962 L 499.53039,0 494.53287,1.35571 c -0.76204,0.21266 -28.90409,7.9127 -70.85137,28.40784 -31.45599,15.37362 -70.67416,37.95988 -111.87711,70.01844 -61.78668,48.07008 -128.05697,117.56577 -178.76757,215.75283 -17.39389,33.6535 -32.94469,70.67413 -45.863804,111.31885 H 18.63437 0 l 5.22792,17.88119 21.20397,72.51719 -21.1508,72.49061 -5.21909,17.87233 h 18.62553 32.82061 c -2.75575,30.13575 -4.22662,61.66265 -4.22662,94.66043 0,17.05716 0.39009,34.50415 1.18731,52.34995 l 0.39009,8.657 7.51403,4.2887 c 0.69998,0.39874 47.32577,26.98128 126.56835,53.53725 79.25142,26.53823 191.1462,53.07645 322.30453,53.08535 105.1517,0.007 222.72631,-17.1369 345.34277,-65.00324 30.2952,-11.82033 60.90062,-25.49266 91.70089,-41.27379 l 7.18619,-3.6773 0.42532,-0.24788 1.24938,-0.70889 0.3901,-8.657 c 0.47848,-10.73052 0.76205,-21.27495 0.94813,-31.72189 0.12428,-6.76081 0.2213,-13.50393 0.23061,-20.14957 0,-0.15086 -0.007,-0.31899 -0.007,-0.46985 -0.0532,-24.84584 -1.26706,-57.23224 -5.35193,-94.66933 h 34.00792 z M 274.23441,306.9398 l 56.87782,-95.05037 66.27029,84.7452 v 0 l -18.54578,15.16091 -36.86115,-15.81662 -45.94349,31.45601 z M 429.58283,162.64088 c -1.70129,-3.90764 -2.64051,-8.21401 -2.64051,-12.75963 0,-8.87857 3.58864,-16.87992 9.41906,-22.70149 5.83041,-5.82158 13.84065,-9.40139 22.73695,-9.40139 5.2279,0 10.13681,1.2317 14.48749,3.42915 4.35068,2.19751 8.14312,5.36084 11.08492,9.20647 l 2.77344,3.62406 3.16333,-3.29623 c 5.29878,-5.51143 12.61785,-8.90516 20.72553,-8.90516 5.39626,0 10.42036,1.49746 14.75331,4.1203 4.33296,2.62283 7.9659,6.37981 10.48239,10.86336 l 1.74558,3.11906 3.26966,-1.4532 c 4.46587,-1.99369 9.3925,-3.10132 14.59382,-3.10132 9.97731,0 18.97994,4.05829 25.5281,10.6685 6.54817,6.61015 10.59757,15.71029 10.59757,25.80275 0,10.09253 -4.0494,19.19261 -10.59757,25.80282 -6.54816,6.61022 -15.55079,10.66844 -25.5281,10.66844 -2.43674,0 -4.82031,-0.23924 -7.10641,-0.69998 l -2.79117,-0.56688 -1.40001,2.48102 c -2.17091,3.88105 -5.34309,7.13303 -9.14439,9.41022 -3.80131,2.27726 -8.23173,3.58865 -12.99001,3.58865 -3.98738,0 -7.73552,-0.92149 -11.09378,-2.55193 l -3.70384,-1.80761 -1.61267,3.8013 c -2.2418,5.26335 -5.98107,9.77354 -10.68619,12.93687 -4.70511,3.17216 -10.34061,5.01526 -16.44574,5.01526 -6.36208,0 -12.2191,-1.99369 -17.03054,-5.414 l -10.63302,-13.87609 -1.1785,-3.18107 -3.31395,0.70005 c -1.7899,0.3808 -3.65067,0.58482 -5.55577,0.58482 -7.47853,0 -14.22166,-3.04816 -19.13944,-8.01909 -4.90893,-4.9621 -7.94818,-11.80266 -7.94818,-19.38752 0,-5.09501 1.36455,-9.83554 3.74814,-13.91158 2.37469,-4.07597 5.76842,-7.47853 9.8178,-9.84438 l 3.00383,-1.75445 z m 268.15591,128.39369 -20.83188,12.75962 -34.3092,-24.14581 -33.28135,16.36599 -18.66095,-9.17985 49.66506,-73.60705 57.41832,77.79824 z m -250.62914,21.74452 0.0352,0.0266 36.02822,-36.71935 38.16368,45.29666 0.0352,-0.0266 v 0.0709 l -16.11789,10.92543 -20.7078,-9.04692 -20.03438,6.17601 -17.40271,-16.63181 v 0 z M 145.40654,362.21377 C 175.33849,295.62449 212.66923,241.74164 251.86965,198.26149 310.66134,133.06334 373.71515,91.28448 421.98022,65.8804 c 24.1281,-12.70646 44.5435,-21.31037 58.81833,-26.71546 7.13298,-2.69368 12.7419,-4.59878 16.50776,-5.80384 0.21266,-0.0711 0.39874,-0.13291 0.59366,-0.19472 95.91871,38.07512 169.96883,89.72501 227.38713,148.0648 43.7903,44.52577 77.92229,92.95032 104.52258,142.25209 18.56346,34.39781 33.40543,69.20323 45.31441,103.37066 H 857.04796 C 806.48795,286.24997 704.28689,132.18638 498.87468,47.06906 c 0,0 -257.05323,74.82103 -361.35432,379.78487 h -17.26975 c 7.59371,-22.78124 16.02928,-44.31311 25.15593,-64.63989"
     style="fill:#173963;fill-opacity:1;fill-rule:nonzero;stroke:none;stroke-width:8.86084938"
     id="path19104"
     inkscape:connector-curvature="0" />
  <path
     d="m 699.76074,293.77523 v 0 l -22.97616,14.07989 z"
     style="fill:#ffffff;fill-opacity:1;fill-rule:nonzero;stroke:none;stroke-width:8.86084938"
     id="path19106"
     inkscape:connector-curvature="0" />
  <path
     d="m 153.55762,471.89425 -0.26583,-1.59495 -0.66456,-0.93039 -0.93039,-0.53165 -1.59496,-0.26582 -1.07214,-0.13292 -2.25951,-0.14175 -4.38612,0.27467 h -9.84439 l -9.9862,0.13291 h -2.1266 l -7.71778,-0.13291 -9.84445,0.65572 h -2.1266 l -7.859528,-0.65572 h -2.126604 l -7.717844,0.53165 H 80.90751 l -4.926611,-0.39874 h -3.056993 l -1.329127,0.25698 -0.797477,0.40758 -0.531651,0.93039 -0.398738,1.72787 -0.132913,2.1266 0.398739,5.05954 v 1.99369 l -0.265826,3.98739 0.132913,2.13546 v 0.93039 l 0.265825,1.32913 0.531651,0.79747 0.797477,0.53165 1.46204,0.26583 1.063302,0.13291 h 1.993691 l 3.065832,-0.13291 2.259517,-0.13291 2.259516,0.13291 3.597549,0.27466 h 2.39243 l 4.262046,-0.27466 h 1.993692 l 1.329127,0.27466 0.398738,1.06331 v 1.86077 l 0.265826,7.85072 v 10.11023 l 0.132912,2.1266 0.531651,7.98363 v 2.13546 l -0.132912,7.85072 v 2.1266 l -0.132913,7.98362 v 9.97732 l -0.132913,2.12661 -0.398738,5.59119 v 2.25952 l 0.265825,1.46204 0.797477,0.39874 1.594956,0.13291 5.98991,0.40758 h 2.1266 l 5.98998,-0.40758 2.25952,0.13291 3.33166,0.39874 2.52534,0.14175 1.72786,-0.26582 0.66457,-0.67343 0.40738,-1.59495 -0.13292,-2.1266 -0.6734,-5.98994 -0.13291,-1.99369 0.26582,-7.85071 V 532.4404 l -0.26582,-7.85072 0.13291,-2.13546 0.54029,-7.98363 0.13291,-2.1266 -0.54029,-7.98363 v -2.1266 l 0.54029,-7.85072 0.13292,-1.72786 0.53165,-0.80634 1.32912,-0.3899 0.93039,-0.14175 h 1.99369 l 3.33166,0.26583 h 2.12661 l 6.12282,-0.39874 2.1266,0.13291 3.98739,0.39874 h 2.13551 l 1.59495,-0.25699 0.79748,-0.67342 0.39873,-0.93039 0.26583,-1.59495 0.13291,-1.0633 0.13291,-2.12661 -0.13291,-3.99624 0.13291,-1.99369 0.26583,-4.26207 -0.13291,-1.99369 z"
     style="fill:#ffffff;fill-opacity:1;fill-rule:nonzero;stroke:none;stroke-width:8.86084938"
     id="path19108"
     inkscape:connector-curvature="0" />
  <path
     d="m 254.28155,559.97907 -4.12913,-4.79372 -1.32913,-1.59496 -4.78486,-6.64563 -1.32913,-1.60381 -4.79369,-6.52159 -1.19622,-1.59495 -4.79376,-6.78742 -0.53165,-1.0633 1.0633,-0.39874 1.72787,-0.39873 1.73677,-0.93039 1.59495,-0.93039 2.65825,-1.46204 1.46204,-1.19622 2.13545,-2.13546 1.19621,-1.46204 1.19621,-1.59495 1.19622,-1.72787 1.19621,-2.00255 0.93039,-1.99369 0.79748,-1.99369 0.53165,-2.1266 0.39874,-2.26839 0.27446,-2.25951 0.13292,-2.12661 v -2.1266 l -0.26583,-2.93294 -0.14155,-2.1266 -0.39874,-2.12661 -0.66456,-2.13546 -0.93039,-1.99369 -0.93039,-1.86078 -1.59495,-2.5342 -1.19622,-1.72787 -1.86078,-2.65825 -1.33796,-1.59495 -1.32913,-1.32913 -1.46204,-1.20508 -2.52534,-1.72787 -1.72787,-1.0633 -2.0026,-0.93039 -2.1266,-0.79747 -1.99369,-0.79748 -1.99369,-0.66456 -2.80001,-0.79748 -1.99369,-0.39874 -2.25952,-0.13291 h -5.05952 l -8.78114,-0.54049 h -2.12661 l -9.05574,0.54049 -15.82552,-0.54049 -5.98992,-0.26583 -1.99369,0.14175 -1.0633,0.12408 -1.60379,0.40757 -0.79748,1.06331 -0.39874,1.72786 -0.13291,0.79748 -0.13291,1.99369 0.26582,4.39499 v 2.1266 l 0.13292,7.18615 v 2.13546 l -0.26583,7.04437 v 2.12661 l -0.39874,7.18615 v 2.1266 l 0.39874,7.19501 v 2.12661 l -0.39874,7.18614 v 2.12661 l 0.13292,7.05324 0.13291,2.1266 0.39874,7.18615 v 2.1266 l -0.53165,7.18615 -0.13292,2.1266 -0.26582,3.4646 0.13291,1.99369 0.13291,1.86078 0.26583,1.32913 0.79748,0.54049 1.60379,0.25698 6.11398,0.39874 h 2.12661 l 6.12282,-0.39874 6.38872,0.39874 h 2.1266 l 1.46204,-0.39874 0.67341,-0.66456 0.26582,-1.59495 0.12427,-2.12661 v -2.1266 l -0.12427,-3.19877 -0.14155,-2.12661 -0.52301,-7.45197 -0.13292,-2.1266 0.25719,-7.31906 0.39874,-1.72787 1.07214,-0.80634 1.72786,-0.13291 4.25321,0.27466 1.60386,0.13291 0.79748,0.39874 0.93039,1.0633 4.2532,5.71525 1.20506,1.60381 3.72155,6.11399 1.19622,1.60381 4.26205,5.72411 1.19621,1.59496 4.25321,5.98107 1.0633,1.0633 1.20505,0.53165 h 1.72787 l 5.98998,-0.26582 h 2.1266 l 7.31904,0.13291 h 9.31273 l 1.72787,-0.52281 0.53165,-1.20507 -0.66456,-1.46204 z m -30.03828,-55.05246 -0.53165,2.13547 -0.93039,1.98483 -1.32913,1.60381 -1.59495,0.93039 -1.72787,0.66456 -2.93291,0.53165 -8.78108,0.53165 h -2.12661 l -6.92037,-0.53165 -1.59495,-0.26582 -0.93039,-0.39874 -0.26582,-0.79748 -0.13292,-1.46204 0.26583,-7.31906 -0.13291,-2.25951 -0.26583,-2.26838 -0.26582,-2.12661 -0.14156,-3.05699 0.14156,-1.4709 0.79747,-0.79748 0.93039,-0.39874 1.59495,-0.13291 6.78746,-0.39874 h 2.1266 l 6.65448,0.13292 2.1266,0.26582 2.92408,0.66457 1.86962,0.80633 1.46204,1.19622 1.19622,1.59495 0.93038,1.99369 0.53166,1.99369 0.26582,2.26838 0.13291,2.25952 z"
     style="fill:#ffffff;fill-opacity:1;fill-rule:nonzero;stroke:none;stroke-width:8.86084938"
     id="path19110"
     inkscape:connector-curvature="0" />
  <path
     d="m 366.84888,554.25762 -3.59749,-8.38236 -0.93039,-1.86078 -3.1899,-6.25576 -4.1203,-8.24946 -0.80631,-1.86077 -2.65826,-6.6545 -0.79747,-1.86078 -2.92408,-6.52158 -0.79748,-1.86078 -2.93299,-6.38868 -0.79747,-1.86078 -2.39243,-6.7874 -0.79748,-1.86964 -2.93292,-6.51273 -0.79747,-1.86077 -3.32282,-6.25576 -0.79748,-1.99369 -1.86962,-5.19247 -0.66456,-1.72786 -1.46204,-1.07216 -2.25952,-0.39874 -6.12289,-0.13291 h -10.37603 l -6.12282,0.26582 -1.9937,0.40758 -1.32912,0.79748 -0.66457,1.46204 -2.40127,5.45828 -0.79747,1.9937 -2.52534,6.11398 -0.93039,2.13546 -2.93299,5.98994 -0.93039,2.1266 -3.72155,7.98362 -4.7937,10.90771 -0.79748,1.86078 -3.58864,7.45197 -0.79748,2.00255 -3.06583,7.17729 -0.79748,1.99369 -3.45573,7.45198 -0.79748,1.86964 -3.33172,7.44311 -0.79748,2.00255 -1.86077,4.1203 -0.79748,2.13547 -0.26583,1.0633 -0.13291,1.72786 1.0633,1.46205 1.59496,0.79747 1.72786,-0.13291 8.2495,-0.53165 h 2.13544 l 7.71778,0.39874 2.1266,0.13291 1.99369,-0.79748 1.46204,-1.72786 0.79748,-2.12661 3.0659,-9.05579 0.79747,-1.59495 1.06331,-0.65573 1.72786,-0.27466 h 6.12283 l 1.99369,-0.13291 h 1.99369 l 7.9836,0.13291 9.9862,0.27466 h 2.12661 l 7.9836,0.52282 1.59495,0.13291 1.19622,0.27466 0.93039,1.32027 4.12913,11.1824 0.66456,1.46204 0.79748,1.0633 1.72787,0.53165 8.24949,-0.53165 h 5.98991 l 1.99369,0.13291 3.06584,0.26583 h 1.86077 l 1.72787,-0.26583 1.46204,-0.66456 0.93039,-1.46204 -0.39874,-1.86078 z m -42.27509,-29.63955 -1.06331,1.06331 -1.72786,0.53165 -6.25574,-0.39874 h -8.38234 l -1.86078,-0.26583 -1.47095,-0.65572 -0.39873,-1.60382 0.39873,-1.99369 3.46464,-8.91401 0.79748,-1.99369 3.58858,-9.04693 1.32912,-1.33799 1.47095,-0.39874 1.72786,0.39874 1.32913,0.93925 0.66456,1.719 2.65826,7.85072 0.6734,2.00255 2.92408,9.04693 0.53165,1.72786 z"
     style="fill:#ffffff;fill-opacity:1;fill-rule:nonzero;stroke:none;stroke-width:8.86084938"
     id="path19112"
     inkscape:connector-curvature="0" />
  <path
     d="m 411.28958,524.71732 0.26583,-7.18615 v -2.12661 l -0.13292,-7.18614 v -2.12661 l 0.13292,-7.31906 v -2.1266 L 411.42249,489.46 v -13.04317 l -0.13291,-2.1266 -0.26582,-3.46459 -0.13292,-1.46204 -0.26582,-0.79748 -1.46204,-0.26583 h -8.25827 l -6.11399,0.26583 h -2.1266 l -3.19881,-0.13291 -1.99369,0.13291 h -1.0633 l -1.32913,0.13291 -0.79748,0.53165 -0.40738,1.46204 0.26583,7.31906 V 489.46 l -0.12427,7.18615 v 2.1266 l 0.12427,7.31906 v 11.43936 l 0.14155,7.18615 v 2.1266 l 0.39874,7.31906 -0.13291,2.13547 -0.40738,7.17728 -0.12427,2.13547 0.39874,7.17729 v 2.00255 l 0.13291,1.99369 v 2.12661 l 0.26582,3.33167 v 1.32913 l 0.39874,0.39874 0.79748,0.26583 6.65454,0.53165 h 8.24059 l 6.78739,0.13291 1.86962,-0.13291 1.0633,-0.39874 0.39874,-0.66457 v -1.46204 l 0.13291,-7.31906 v -2.13546 l 0.53165,-7.17729 v -2.13547 l -0.39874,-7.17728 z"
     style="fill:#ffffff;fill-opacity:1;fill-rule:nonzero;stroke:none;stroke-width:8.86084938"
     id="path19114"
     inkscape:connector-curvature="0" />
  <path
     d="m 503.76321,552.12835 -0.13291,-7.45197 -0.13291,-1.46204 -0.39874,-0.93039 -0.93039,-0.79747 -1.59495,-0.39874 h -2.00255 l -2.12661,0.13291 -4.51903,0.53165 -2.13547,0.13291 -19.15715,0.26583 h -2.13547 l -3.98738,0.26583 -4.51903,-0.26583 -1.60382,-0.26583 -0.66456,-0.53165 -0.26583,-0.67342 -0.13291,-0.66456 -0.13291,-1.32913 0.79747,-17.56221 v -2.1266 l -0.39874,-7.7178 v -2.13547 l -0.26582,-7.70894 v -2.1266 l 0.39874,-7.72666 v -2.1266 l -0.26583,-7.7178 V 470.1655 l -0.66456,-0.93039 -0.93039,-0.53165 h -1.32913 l -9.44566,0.13291 h -2.13548 l -6.51272,-0.39874 -2.00253,0.13291 h -1.0633 l -1.46204,0.26583 -0.93039,0.39874 -0.53165,0.79748 -0.39874,1.72786 -0.13292,1.19622 v 1.99369 l 0.26583,3.99624 v 11.30645 l 0.13291,7.05323 v 2.1266 l 0.53165,16.23308 v 2.13547 l -0.26582,16.23307 v 2.12661 l -0.26583,7.05323 v 2.12661 l 0.53165,7.05323 -0.13291,1.99369 -0.66456,5.05955 v 2.1266 l 0.26582,1.59496 0.66457,0.79747 0.93039,0.53166 1.46204,0.26582 1.86077,0.14175 h 2.00253 l 6.11399,-0.40757 h 9.85327 l 7.71781,0.54048 11.971,-0.80633 h 9.97732 l 14.77104,0.80633 1.86078,-0.13291 h 1.07216 l 1.32912,-0.27466 0.93039,-0.39874 0.79748,-0.93039 0.39874,-1.59495 v -1.19622 l 0.13291,-2.1266 -0.26583,-4.12916 z"
     style="fill:#ffffff;fill-opacity:1;fill-rule:nonzero;stroke:none;stroke-width:8.86084938"
     id="path19116"
     inkscape:connector-curvature="0" />
  <path
     d="m 607.28186,497.30628 0.26582,-7.05323 v -2.12661 l -0.39874,-7.05323 0.13292,-2.12661 0.39874,-5.32537 v -1.99369 l -0.53166,-1.86078 -1.0633,-1.0633 -1.72786,-0.26583 h -1.20508 l -2.1266,-0.13291 -5.98994,0.39874 h -2.1266 l -7.18615,-0.39874 h -2.1266 l -1.59496,0.26582 -1.0633,1.19622 -0.39874,2.1266 0.13292,8.6482 v 2.1266 l 0.26582,8.64819 v 2.13546 l -0.53165,8.64819 -0.13291,1.46204 -0.54049,1.0633 -1.46204,0.79748 -0.93039,0.13291 h -1.99369 l -7.85071,-0.53165 -8.51528,-0.26583 -1.9937,0.13292 -5.05954,0.79747 h -1.86078 l -1.86077,-0.13291 -1.33799,-0.13291 -0.66456,-0.53165 -0.39874,-1.06331 -0.13292,-1.59495 v -10.91656 l 0.13292,-8.64819 0.13291,-2.1266 0.39874,-5.98994 v -1.99369 l -0.13291,-0.93039 -0.53166,-1.72787 -1.0633,-1.0633 -1.72786,-0.26583 -1.99369,-0.13291 h -2.13547 l -5.31651,0.39874 h -2.13547 l -5.58233,-0.26583 h -2.00255 l -1.99369,0.13292 -1.72787,0.39874 -1.19621,0.93039 -0.53165,1.59495 v 2.79117 l 0.66456,4.52789 0.13291,2.12661 0.13292,7.05323 -0.13292,2.12661 -0.39874,7.05323 -0.13291,2.1266 v 9.18871 l 0.13291,7.05323 v 2.12661 l 0.39874,7.05323 v 2.1266 l -0.13291,7.05324 v 2.12661 l -0.26583,7.05323 v 11.17353 l -0.26582,3.99625 v 2.1266 l 0.13291,1.19622 0.26583,1.46204 0.53165,0.66456 1.0633,0.53165 1.46204,0.26583 h 1.0633 l 2.13547,0.13291 6.24689,-0.39874 2.13547,0.13292 5.5912,0.54048 1.99369,0.13292 1.99369,-0.13292 1.72787,-0.40757 1.19621,-1.0633 0.53165,-1.86078 v -3.057 l -0.53165,-5.72411 -0.13291,-2.1266 0.26582,-8.64819 v -2.13546 l -0.13291,-8.51528 0.13291,-1.86078 0.67342,-1.19622 1.18736,-0.39873 1.73673,-0.13292 7.18614,0.39874 10.64189,0.26583 2.1266,-0.13292 5.32537,-0.39873 h 3.18991 l 1.46204,0.53165 0.54048,1.0633 v 1.86078 l 0.26583,8.51528 v 2.13546 l -0.26583,8.64819 0.13292,2.1266 0.53165,8.64819 0.26582,1.86078 0.79748,1.06331 1.86078,0.40757 h 2.1266 l 7.05324,-0.54049 h 2.1266 l 7.18615,0.39874 2.13547,-0.26582 1.46204,-0.13292 0.93039,-0.93039 0.66456,-1.72786 0.13291,-1.86078 -0.13291,-1.99369 -0.26583,-3.33169 -0.13291,-2.1266 v -9.17984 l 0.13291,-7.05323 v -2.12661 l -0.13291,-7.05324 v -2.1266 l 0.26583,-7.05323 v -2.12661 l 0.53165,-7.05323 v -2.13547 l -0.53165,-7.05324 z"
     style="fill:#ffffff;fill-opacity:1;fill-rule:nonzero;stroke:none;stroke-width:8.86084938"
     id="path19118"
     inkscape:connector-curvature="0" />
  <path
     d="m 702.94892,543.34548 -0.53165,-0.79748 -0.79748,-0.39873 -4.79376,-0.53166 -1.99369,-0.13291 h -1.99369 l -9.45448,0.53165 h -2.12661 l -9.44571,-0.53165 -7.18612,0.53165 h -2.1266 l -7.31906,-0.26582 -1.46204,-0.13292 -0.53165,-0.53165 -0.39874,-0.93039 -0.13291,-1.32912 v -2.93294 l 0.13291,-2.12661 0.39874,-3.33167 0.13291,-1.99369 0.39874,-0.93039 0.66456,-0.39874 1.59495,-0.13291 2.26838,-0.13292 5.31651,0.39874 h 2.1266 l 8.51525,0.26583 10.65076,-0.66457 2.12661,0.13292 5.98991,0.66456 h 2.65826 l 1.32912,-0.26583 0.93039,-0.66456 0.53165,-0.93039 0.27447,-1.59495 0.26582,-3.99625 -0.26582,-3.05699 v -4.39498 l -0.13291,-2.25952 -0.27447,-2.25952 -0.13291,-1.46204 -0.39874,-0.80633 -0.79748,-0.65573 -1.46204,-0.27466 -4.12029,-0.26583 -14.90391,0.79748 h -12.64444 l -4.25321,0.26583 -4.26207,-0.26583 -1.46204,-0.39874 -0.53165,-0.66456 -0.26583,-0.93039 -0.13291,-1.46204 -0.13291,-2.25952 v -2.13547 l 0.26582,-3.1899 0.26583,-1.46204 0.13291,-0.79748 0.66457,-0.66456 1.32912,-0.27467 1.06331,-0.12407 h 2.00255 l 5.98107,0.39874 6.92029,0.26582 h 2.12661 l 6.78745,-0.26582 h 2.13545 l 12.50263,0.26582 2.12661,-0.13291 h 1.0633 l 1.60386,-0.26582 0.66456,-0.54049 0.53165,-0.92154 0.26583,-1.60381 0.13291,-1.99369 -0.13291,-1.99369 -0.13292,-3.33168 v -2.25951 l 0.26583,-3.32282 v -3.5975 l -0.26583,-1.72787 -0.26582,-0.93039 -0.79748,-0.66456 -1.86968,-0.39874 h -3.32282 l -4.52787,0.39874 -2.25952,0.13291 -18.09388,-0.26583 h -2.1266 l -7.9836,0.53166 h -2.13546 l -7.98363,-0.53166 h -2.1266 l -8.11654,0.13292 -8.64819,-0.53165 -1.72786,0.26582 -1.0633,0.13291 -0.66457,0.53166 -0.39874,1.0633 -0.13291,1.86078 -0.39874,6.92032 v 1.99369 l -0.26582,3.99624 v 3.18991 l 0.13291,2.1266 0.39874,7.05323 0.13291,2.13547 -0.53165,7.05324 v 11.30644 l -0.27466,7.18615 0.14175,2.12661 0.39874,7.05323 0.13291,2.1266 -0.13291,7.05324 v 2.1266 l -0.54049,7.05324 v 1.99369 l -0.13292,2.00255 0.13292,2.12661 0.27466,3.06585 0.26583,1.45318 0.39873,0.93925 0.93039,0.66456 1.59496,0.26583 4.52789,0.26582 11.43935,-0.66456 h 2.12661 l 6.92032,0.53165 h 9.17984 l 2.1266,-0.13291 6.9203,-0.53165 2.13551,-0.13292 7.05321,0.52282 h 2.12661 l 17.42931,-0.52282 0.66457,-0.54049 0.53165,-0.92153 0.13291,-1.33798 0.53165,-7.18615 0.13291,-2.1266 -0.39874,-7.31907 z"
     style="fill:#ffffff;fill-opacity:1;fill-rule:nonzero;stroke:none;stroke-width:8.86084938"
     id="path19120"
     inkscape:connector-curvature="0" />
  <path
     d="m 820.83721,554.25762 -3.58864,-8.38236 -0.93039,-1.86078 -3.19881,-6.25576 -4.1203,-8.24946 -0.80632,-1.86077 -2.65825,-6.6545 -0.79748,-1.86078 -2.92408,-6.52158 -0.80631,-1.86078 -2.92408,-6.38868 -0.79748,-1.86078 -2.39243,-6.7874 -0.79747,-1.86964 -2.93299,-6.51273 -0.79748,-1.86077 -3.32282,-6.25576 -0.79747,-1.99369 -1.86962,-5.19247 -0.66456,-1.72786 -1.46204,-1.07216 -2.25952,-0.39874 -6.12282,-0.13291 h -10.3761 l -6.12283,0.26582 -1.99369,0.40758 -1.32913,0.79748 -0.66456,1.46204 -2.40127,5.45828 -0.79748,1.9937 -2.52534,6.11398 -0.93039,2.13546 -2.92408,5.98994 -0.93929,2.1266 -3.72156,7.98362 -4.7937,10.90771 -0.79747,1.86078 -3.58865,7.45197 -0.79747,2.00255 -3.06583,7.17729 -0.79748,1.99369 -3.45573,7.45198 -0.79748,1.86964 -3.33172,7.44311 -0.79748,2.00255 -1.86078,4.1203 -0.79747,2.13547 -0.26583,1.0633 -0.13291,1.72786 1.0633,1.46205 1.59495,0.79747 1.72787,-0.13291 8.24949,-0.53165 h 2.13545 l 7.71777,0.39874 2.12661,0.13291 1.99369,-0.79748 1.46204,-1.72786 0.79748,-2.12661 3.06589,-9.05579 0.79748,-1.59495 1.0633,-0.65573 1.72787,-0.27466 h 6.12282 l 1.99369,-0.13291 h 1.9937 l 7.9836,0.13291 9.9862,0.27466 h 2.1266 l 7.98361,0.52282 1.59495,0.13291 1.19621,0.27466 0.93039,1.32027 4.1292,11.1824 0.66457,1.46204 0.79747,1.0633 1.72787,0.53165 8.24943,-0.53165 h 5.98991 l 1.99369,0.13291 3.0659,0.26583 h 1.86078 l 1.72786,-0.26583 1.46204,-0.66456 0.93923,-1.46204 -0.40738,-1.86078 z m -42.27516,-29.63955 -1.0633,1.06331 -1.72787,0.53165 -6.25573,-0.39874 h -8.38235 l -1.86077,-0.26583 -1.47095,-0.65572 -0.39874,-1.60382 0.39874,-1.99369 3.46464,-8.91401 0.79747,-1.99369 3.58865,-9.04693 1.33796,-1.33799 1.46204,-0.39874 1.72787,0.39874 1.32913,0.93925 0.66456,1.719 2.65826,7.85072 0.66456,2.00255 2.93292,9.04693 0.53165,1.72786 z"
     style="fill:#ffffff;fill-opacity:1;fill-rule:nonzero;stroke:none;stroke-width:8.86084938"
     id="path19122"
     inkscape:connector-curvature="0" />
  <path
     d="m 929.67946,516.8666 -0.13292,-2.1266 -0.13291,-3.19876 -0.26583,-2.12661 -0.39873,-2.25952 -0.39874,-2.1266 -0.53165,-2.93294 -0.53165,-2.1266 -0.67347,-2.12661 -0.79748,-2.1266 -0.66456,-2.13547 -0.79748,-1.99369 -1.46204,-2.92408 -0.93039,-1.73673 -1.19621,-1.46204 -1.32913,-1.32912 -2.93292,-2.79117 -1.59495,-1.33799 -1.72787,-1.46204 -4.39496,-3.05699 -1.86078,-1.0633 -1.99369,-1.0633 -1.99369,-0.93925 -4.79376,-1.72787 -1.99369,-0.53165 -2.13545,-0.39874 -3.45573,-0.53165 -2.1266,-0.26582 -4.26205,-0.26583 -3.32282,-0.26582 h -2.1266 l -2.0026,0.13291 -5.58233,0.26582 h -2.40127 l -1.0633,-0.13291 -6.38865,-0.39874 h -2.12661 l -11.70522,-0.13291 -2.13545,0.13291 -1.99369,0.26583 -2.25951,0.26582 -1.46204,0.39874 -0.54029,0.79748 -0.26583,1.4709 -0.3901,1.98483 -0.14155,2.13546 v 5.19246 l 0.39874,7.05323 v 2.12661 l 0.13291,7.04437 v 2.13547 l -0.53165,7.05324 0.14155,2.25951 v 1.19622 l 0.12428,2.25951 0.26582,3.46459 v 2.12661 l -0.13291,2.26838 -0.25719,1.99369 -0.14155,2.92408 -0.12427,1.99369 0.26582,7.05324 v 2.13546 l 0.12428,7.04437 v 2.12661 l -0.12428,2.13547 v 1.99369 l -0.14155,3.05699 v 1.86964 l -0.25719,3.98738 -0.13291,1.0633 0.13291,2.13547 0.25719,1.46204 0.6734,0.66456 1.0633,0.53165 5.71525,0.53165 2.00253,0.13291 h 9.3128 l 1.99369,0.13292 2.25952,-0.13292 3.33165,-0.13291 4.25321,-0.26582 h 2.13544 l 3.45574,0.26582 4.26211,0.13291 h 2.1266 l 2.92408,-0.26582 1.99369,-0.13291 8.11652,-1.20508 2.13544,-0.3899 2.12661,-0.53165 1.99369,-0.66456 2.93298,-1.07216 1.72787,-0.79748 2.65825,-1.46204 1.72787,-1.0633 2.53418,-1.99369 1.72787,-1.46204 2.92408,-2.93294 2.25951,-2.12661 1.33797,-1.46204 1.86078,-2.13546 1.0633,-1.72787 1.46204,-2.92408 0.79748,-1.99369 0.79747,-2.25952 0.79748,-2.13546 0.80638,-1.99369 0.66456,-2.12661 0.93039,-3.06585 0.39874,-2.1266 0.13292,-3.18991 0.13291,-2.26838 z m -27.23828,-0.49623 -0.13291,3.057 -0.13291,1.86963 -0.53165,2.92408 -0.53166,1.9937 -0.80631,2.26837 -0.93039,1.99369 -1.59495,2.52534 -1.32913,1.59496 -2.39243,2.13547 -1.73677,1.19621 -1.99369,0.93039 -2.12661,0.79748 -2.25951,0.66456 -2.13544,0.39874 -3.057,0.13291 -12.37863,0.79748 -1.59495,-0.13291 -0.79748,-0.66457 -0.53165,-1.46204 -0.39874,-3.1899 -0.13291,-2.00256 0.13291,-3.05699 v -1.86078 l 0.26583,-2.93294 0.13291,-2.12661 0.13292,-2.26837 v -6.37981 l 0.13291,-2.93295 v -2.1266 l -0.13291,-2.12661 -0.26583,-2.1266 -0.26583,-2.93294 -0.13291,-2.1266 -0.26582,-3.99624 0.13291,-1.9937 0.13291,-1.19621 0.39874,-1.59495 0.66456,-0.66457 1.46204,-0.39873 2.93299,-0.39874 1.99369,-0.13292 2.92408,0.13292 h 3.33166 l 2.25951,0.13291 3.32282,0.13291 2.13545,0.39874 1.86077,0.39874 1.86078,0.79748 2.92408,1.72786 1.60386,1.19622 1.46204,1.46204 1.32913,1.47089 0.66456,0.66457 1.99369,2.79117 1.07214,1.99369 0.26583,0.80633 0.53165,1.99369 0.39874,3.057 0.13291,2.13547 z"
     style="fill:#ffffff;fill-opacity:1;fill-rule:nonzero;stroke:none;stroke-width:8.86084938"
     id="path19124"
     inkscape:connector-curvature="0" />
  <path
     d="M 145.41099,362.21112 C 175.34294,295.62183 212.67368,241.73898 251.8741,198.26767 310.6658,133.06068 373.7196,91.29066 421.98467,65.87774 446.1039,53.18012 466.51929,44.56737 480.79412,39.17112 c 7.14184,-2.70252 12.7419,-4.59878 16.50776,-5.81268 0.21266,-0.0711 0.39874,-0.12427 0.60256,-0.18607 95.91867,38.06621 169.96881,89.7161 227.37821,148.06473 43.7992,44.51693 77.93119,92.95034 104.53149,142.2521 18.55462,34.38896 33.39652,69.20323 45.31434,103.36181 H 120.24616 c 7.59377,-22.77239 16.02928,-44.30424 25.16483,-64.63989"
     style="fill:#90c6e6;fill-opacity:1;fill-rule:nonzero;stroke:none;stroke-width:8.86084938"
     id="path19126"
     inkscape:connector-curvature="0" />
  <path
     d="m 899.23798,607.1498 h 16.25078 c 4.34186,38.45609 5.56466,71.61336 5.56466,96.42378 0,10.21654 -0.20402,18.99762 -0.47849,26.19265 -0.13291,3.62407 -0.28377,6.88488 -0.43396,9.6583 -0.0884,1.46204 -0.15949,2.76459 -0.23924,3.97855 -10.94311,5.476 -21.84195,10.6596 -32.71421,15.60395 -136.09381,61.97276 -266.67615,83.26539 -382.17732,83.28313 -126.89624,0.007 -235.53021,-25.72307 -312.30951,-51.45498 -38.38521,-12.86595 -68.80448,-25.71416 -89.53003,-35.30162 -10.367194,-4.7937 -18.306471,-8.77224 -23.622981,-11.52792 -0.07111,-0.0465 -0.132912,-0.0711 -0.204021,-0.10633 -0.531651,-14.28374 -0.859546,-28.36358 -0.859546,-42.08908 0.0066,-33.1307 1.532949,-64.64873 4.359538,-94.66043"
     style="fill:#4d8b3f;fill-opacity:1;fill-rule:nonzero;stroke:none;stroke-width:8.86084938"
     id="path19128"
     inkscape:connector-curvature="0" />
  <path
     d="M 145.41099,362.21112 C 175.34294,295.62183 212.67368,241.73898 251.8741,198.26767 310.6658,133.06068 373.7196,91.29066 421.98467,65.87774 446.1039,53.18012 466.51929,44.56737 480.79412,39.17112 c 7.14184,-2.70252 12.7419,-4.59878 16.50776,-5.81268 0.21266,-0.0711 0.39874,-0.12427 0.60256,-0.18607 95.91867,38.06621 169.96881,89.7161 227.37821,148.06473 43.7992,44.51693 77.93119,92.95034 104.53149,142.2521 18.55462,34.38896 33.39652,69.20323 45.31434,103.36181 H 857.05234 C 806.4835,286.24705 704.29134,132.18345 498.87911,47.07504 c 0,0 -257.05321,74.81213 -361.36313,379.77597 h -17.26982 c 7.59377,-22.77239 16.02928,-44.30424 25.16483,-64.63989"
     style="fill:#ffffff;fill-opacity:1;fill-rule:nonzero;stroke:none;stroke-width:8.86084938"
     id="path19130"
     inkscape:connector-curvature="0" />
  <path
     d="m 535.4886,607.07626 c 0.18608,0.17724 0.38099,0.35441 0.57598,0.54049 20.01666,19.06854 27.53952,44.95109 -62.94747,53.6613 -11.66974,1.12533 -15.87865,6.18487 -13.74318,11.26213 0.0532,0.12428 0.11517,0.23925 0.17724,0.36352 0.0709,0.15086 0.13291,0.29241 0.21266,0.43396 0.0709,0.13291 0.1595,0.25719 0.23924,0.3901 0.0797,0.13291 0.16834,0.26582 0.25699,0.40738 0.0886,0.13291 0.18608,0.25718 0.28357,0.3901 0.10633,0.13291 0.20382,0.26582 0.31899,0.39873 0.0975,0.13292 0.21266,0.25719 0.32783,0.3901 0.11517,0.13292 0.24808,0.26583 0.37215,0.39874 0.12408,0.12427 0.23925,0.24788 0.37216,0.37216 0.14175,0.13291 0.29241,0.26582 0.44306,0.40737 0.13292,0.11497 0.25699,0.23061 0.39874,0.35422 0.17724,0.14155 0.36332,0.28377 0.5494,0.43396 0.13291,0.0977 0.25698,0.20402 0.3899,0.30104 0.31899,0.23061 0.66456,0.46985 1.01899,0.69999 0.0975,0.0598 0.19492,0.12427 0.29241,0.17744 0.27467,0.17744 0.55823,0.34557 0.85064,0.52301 0.15066,0.0797 0.31899,0.16813 0.47849,0.25719 0.24808,0.13291 0.50507,0.27446 0.77089,0.40737 0.17724,0.0884 0.36332,0.17744 0.54049,0.26583 0.26583,0.12427 0.53165,0.25718 0.79748,0.37215 0.20382,0.0884 0.39874,0.17744 0.60256,0.25719 0.27466,0.12427 0.56707,0.23924 0.85064,0.35421 0.20382,0.0797 0.41648,0.1595 0.62914,0.23061 0.31015,0.12427 0.62024,0.2306 0.93925,0.34557 0.21266,0.0598 0.41648,0.14155 0.62914,0.20402 0.35441,0.11497 0.72659,0.2306 1.09875,0.34557 0.18607,0.0532 0.37215,0.10633 0.55823,0.1595 0.56707,0.15949 1.15191,0.31035 1.75445,0.4519 97.70859,23.33948 109.65301,103.62762 92.8617,143.1027 104.26561,-7.22155 218.89846,-33.52943 336.60599,-92.55153 0,0 3.62407,-50.61317 -5.52033,-125.56713 h 16.25077 c 4.33296,38.45609 5.56466,71.60456 5.56466,96.41491 0,10.22545 -0.21266,18.99769 -0.47848,26.19265 -0.14156,3.63297 -0.29241,6.88488 -0.44327,9.66721 -0.0797,1.46204 -0.15949,2.75575 -0.23924,3.97855 -10.93427,5.476 -21.83311,10.6596 -32.70537,15.60395 -136.09382,61.97276 -266.67617,83.26539 -382.17734,83.28313 -126.89622,0.007 -235.5391,-25.73191 -312.3095,-51.46382 -38.39404,-12.85711 -68.80447,-25.70532 -89.53886,-35.30162 -10.358355,-4.78486 -18.306537,-8.7634 -23.614208,-11.52799 -0.07111,-0.0332 -0.132913,-0.0598 -0.204021,-0.0977 -0.531651,-14.29251 -0.859481,-28.36358 -0.859481,-42.08901 0,-33.1307 1.524044,-64.64878 4.3507,-94.66047 h 16.038115 c -3.898796,39.2004 -5.546914,81.00587 -4.49245,125.56713 0,0 127.808895,65.98673 280.968635,85.5249 42.05359,5.36084 137.7065,-52.1638 51.57905,-124.44175 -0.43396,-0.36352 -0.93039,-0.65592 -1.40004,-0.99246 -0.14155,-0.0977 -0.27446,-0.20402 -0.41668,-0.30105 -0.33693,-0.24788 -0.6734,-0.50506 -1.01013,-0.76205 -0.14156,-0.10633 -0.28377,-0.21266 -0.42532,-0.32763 -0.3901,-0.30105 -0.77974,-0.6114 -1.16964,-0.92155 -0.0598,-0.0598 -0.13291,-0.11497 -0.20402,-0.16814 -0.46054,-0.37215 -0.91264,-0.76205 -1.36455,-1.15189 -0.0977,-0.0797 -0.18607,-0.15949 -0.28377,-0.23924 -0.36351,-0.31899 -0.71772,-0.63798 -1.0722,-0.95697 -0.11497,-0.10633 -0.23061,-0.21266 -0.34558,-0.31899 -0.37215,-0.33693 -0.7354,-0.68231 -1.09872,-1.02788 -0.0711,-0.0711 -0.14155,-0.13291 -0.21266,-0.20402 -0.44326,-0.43396 -0.87722,-0.86832 -1.31138,-1.31139 -0.0199,-0.0199 -0.0332,-0.0332 -0.0532,-0.0532 -0.39874,-0.41668 -0.79747,-0.8329 -1.18737,-1.25822 -0.0798,-0.0884 -0.1595,-0.16813 -0.23061,-0.25719 -0.35421,-0.39009 -0.69998,-0.77973 -1.04556,-1.16963 -0.0532,-0.0598 -0.10633,-0.13291 -0.16813,-0.19471 -0.79748,-0.93039 -1.56837,-1.88737 -2.295,-2.86208 -0.0465,-0.0532 -0.0797,-0.10633 -0.12428,-0.1595 -0.32763,-0.44326 -0.63798,-0.87722 -0.94806,-1.32029 -0.0465,-0.0598 -0.0884,-0.12427 -0.13292,-0.18607 -0.69114,-0.9924 -1.33803,-2.01137 -1.93168,-3.03041 0,0 -0.0199,-0.0332 -0.0266,-0.0532 -0.28377,-0.48712 -0.54959,-0.96581 -0.80631,-1.45313 -0.0332,-0.0598 -0.0711,-0.13292 -0.10633,-0.20402 -0.25719,-0.48713 -0.49643,-0.98356 -0.73548,-1.47979 0,-0.007 -0.007,-0.0199 -0.007,-0.0199 -8.3115,-17.82806 -0.17744,-37.68522 54.60943,-42.0802 18.27992,-1.47091 78.92358,2.43673 46.59034,-22.18757 -0.2215,-0.16834 -0.44307,-0.34558 -0.67342,-0.51391 z"
     style="fill:#ffffff;fill-opacity:1;fill-rule:nonzero;stroke:none;stroke-width:8.86084938"
     id="path19132"
     inkscape:connector-curvature="0" />
  <path
     d="m 448.21278,311.69187 -4.94439,5.18359 c 0,0 19.20149,19.31666 19.37871,19.31666 0.16833,0 21.40781,-6.814 21.40781,-6.814 l 22.2939,9.72035 18.50145,-13.5571 -4.89119,-5.75955 -17.27865,2.8532 -10.76593,-8.15199 c 0,0 -25.43064,4.48359 -26.18381,5.00638 -0.76204,0.52281 -17.5179,-7.79754 -17.5179,-7.79754"
     style="fill:#ffffff;fill-opacity:1;fill-rule:nonzero;stroke:none;stroke-width:8.86084938"
     id="path19134"
     inkscape:connector-curvature="0" />
  <path
     d="m 396.85885,296.03563 3.23416,4.10258 -21.34578,17.89891 -36.18769,-17.1103 -46.99795,33.07755 -23.56981,-23.25973 2.24177,-3.81016 23.24199,13.62798 42.90423,-27.22939 c 0,0 37.49023,15.44446 37.9333,15.40016 0.43396,-0.0445 18.54578,-12.6976 18.54578,-12.6976"
     style="fill:#ffffff;fill-opacity:1;fill-rule:nonzero;stroke:none;stroke-width:8.86084938"
     id="path19136"
     inkscape:connector-curvature="0" />
  <path
     d="m 591.1622,286.13009 -3.01269,4.44815 24.74836,14.54065 c 0,0 27.14964,-17.54448 27.67243,-17.1103 0.52281,0.43416 39.71434,24.52683 39.71434,24.52683 l 19.55585,-18.59006 -2.10002,-2.91522 -37.01174,-5.73297 -19.11285,-10.47353 -17.45588,9.78238 z"
     style="fill:#ffffff;fill-opacity:1;fill-rule:nonzero;stroke:none;stroke-width:8.86084938"
     id="path19138"
     inkscape:connector-curvature="0" />
  <path
     d="m 295.69896,331.78207 46.65237,-31.95222 37.03833,15.89636 20.08757,-16.41915 27.02554,34.54845 18.26225,-18.61665 2.22407,2.19749 16.6141,15.87864 20.74324,-6.38867 21.26604,9.28617 17.96981,-12.16594 0.19491,0.2304 23.10024,27.41548 41.85865,-62.01709 20.58375,10.11909 32.97122,-16.20649 34.49533,24.26986 22.97616,-14.07989 0.0465,0.0618 0.39874,0.54049 0.007,0.009 105.0454,144.38754 -607.70365,-2.2418 74.62605,-126.24052 0.26583,-0.37216 z"
     style="fill:#634b78;fill-opacity:1;fill-rule:nonzero;stroke:none;stroke-width:8.86084938"
     id="path19140"
     inkscape:connector-curvature="0" />
  <path
     d="m 274.23534,306.93891 56.87775,-95.05034 66.2703,84.74517 v 0 l -18.54578,15.16091 -36.86109,-15.81661 -45.94349,31.45601 z"
     style="fill:#d1d3d4;fill-opacity:1;fill-rule:nonzero;stroke:none;stroke-width:8.86084938"
     id="path19142"
     inkscape:connector-curvature="0" />
  <path
     d="m 697.73781,291.03191 -20.82297,12.75962 -34.31807,-24.14581 -33.28135,16.36599 -18.66981,-9.17984 h 0.009 -0.009 l 49.68279,-73.60706 z"
     style="fill:#d1d3d4;fill-opacity:1;fill-rule:nonzero;stroke:none;stroke-width:8.86084938"
     id="path19144"
     inkscape:connector-curvature="0" />
  <path
     d="m 447.10783,312.77555 0.0352,0.0352 36.02821,-36.71936 38.16367,45.2878 0.0445,-0.0179 v 0.0709 l -16.12675,10.91657 -20.7078,-9.04693 -20.03438,6.17601 -17.40271,-16.63182 v 0 z"
     style="fill:#d1d3d4;fill-opacity:1;fill-rule:nonzero;stroke:none;stroke-width:8.86084938"
     id="path19146"
     inkscape:connector-curvature="0" />
  <path
     d="m 555.99704,135.82879 c -5.1836,0 -10.08365,1.10762 -14.54066,3.09248 l -3.25193,1.44429 -1.73673,-3.10132 c -2.50762,-4.4747 -6.13171,-8.21394 -10.43808,-10.82793 -4.32409,-2.60509 -9.33048,-4.10255 -14.70015,-4.10255 -8.0811,0.007 -15.36471,3.37598 -20.65464,8.87857 l -3.1456,3.28733 -2.76459,-3.61516 c -2.92408,-3.82789 -6.6988,-6.98237 -11.04061,-9.17098 -4.33296,-2.19751 -9.22415,-3.42031 -14.43433,-3.42031 -8.85199,0 -16.84446,3.5709 -22.64836,9.3659 -5.80384,5.79499 -9.38364,13.76976 -9.38364,22.61291 0,4.52787 0.93929,8.8165 2.63167,12.71529 l 1.38229,3.18107 -2.98608,1.74554 c -4.03171,2.34817 -7.41653,5.74183 -9.78238,9.80012 -2.37468,4.06713 -3.73039,8.78108 -3.73039,13.85835 0,7.55835 3.0215,14.37232 7.91269,19.31668 4.90009,4.94435 11.61657,7.9836 19.06859,7.9836 1.8962,0 3.74813,-0.19472 5.53803,-0.58482 l 3.30509,-0.69114 1.16077,3.16332 c 2.06458,5.60892 5.795,10.42036 10.59758,13.82293 4.79372,3.40256 10.62416,5.40516 16.95966,5.40516 6.08741,0 11.70518,-1.8431 16.39258,-5.00643 4.67852,-3.15441 8.40008,-7.63803 10.63302,-12.89253 l 1.61267,-3.77472 3.68611,1.78993 c 3.3494,1.63038 7.07982,2.54302 11.04948,2.54302 4.74941,0 9.15326,-1.30254 12.9457,-3.5709 3.79244,-2.26835 6.93805,-5.51143 9.10895,-9.3659 l 1.39116,-2.48108 2.7823,0.56688 c 2.27724,0.46054 4.65195,0.70005 7.07983,0.70005 9.94187,0 18.90019,-4.04946 25.43063,-10.62418 6.52158,-6.58364 10.55327,-15.64829 10.55327,-25.70533 0,-10.05704 -4.03169,-19.1306 -10.55327,-25.70532 -6.53044,-6.57473 -15.48876,-10.63302 -25.43063,-10.63302"
     style="fill:#00a1df;fill-opacity:1;fill-rule:nonzero;stroke:none;stroke-width:8.86084938"
     id="path19148"
     inkscape:connector-curvature="0" />
  <path
     d="M 193.06194,451.85101 H 821.20757 V 427.39507 H 193.06194 Z"
     style="fill:#173963;fill-opacity:1;fill-rule:nonzero;stroke:none;stroke-width:8.86084938"
     id="path19150"
     inkscape:connector-curvature="0" />
</svg>
